# Blender v3.1.2 OBJ File: ''
# www.blender.org
mtllib FrontWheels.mtl
o FrontWheels_Cube.002
v -0.153174 -0.237314 0.224726
v -0.126231 -0.261784 0.224726
v -0.124482 -0.298139 0.224726
v -0.148953 -0.325083 0.224726
v -0.185308 -0.326831 0.224726
v -0.212251 -0.302361 0.224726
v -0.214000 -0.266006 0.224726
v -0.189529 -0.239062 0.224726
v -0.161843 -0.261463 0.188123
v -0.149437 -0.272730 0.188123
v -0.148632 -0.289470 0.188123
v -0.159899 -0.301877 0.188123
v -0.176639 -0.302682 0.188123
v -0.189045 -0.291414 0.188123
v -0.189850 -0.274674 0.188123
v -0.178583 -0.262268 0.188123
v -0.161843 -0.261463 0.174458
v -0.149437 -0.272730 0.174458
v -0.148632 -0.289470 0.174458
v -0.159899 -0.301877 0.174458
v -0.176639 -0.302682 0.174458
v -0.189045 -0.291414 0.174458
v -0.189850 -0.274674 0.174458
v -0.178583 -0.262268 0.174458
v -0.164899 -0.269976 0.161839
v -0.157617 -0.276589 0.161839
v -0.157145 -0.286414 0.161839
v -0.163758 -0.293696 0.161839
v -0.173583 -0.294169 0.161839
v -0.180865 -0.287555 0.161839
v -0.181337 -0.277730 0.161839
v -0.174724 -0.270449 0.161839
v -0.164899 -0.269976 0.142766
v -0.157617 -0.276589 0.142766
v -0.157145 -0.286414 0.142766
v -0.163758 -0.293696 0.142766
v -0.173583 -0.294169 0.142766
v -0.180865 -0.287555 0.142766
v -0.181337 -0.277730 0.142766
v -0.174724 -0.270449 0.142766
v -0.119494 -0.143486 0.161839
v -0.112212 -0.150100 0.161839
v -0.129319 -0.143959 0.161839
v -0.119494 -0.143486 0.142766
v -0.112212 -0.150100 0.142766
v -0.129319 -0.143959 0.142766
v -0.144971 -0.270624 0.232729
v -0.160175 -0.256815 0.232729
v -0.143984 -0.291139 0.232729
v -0.157792 -0.306343 0.232729
v -0.178307 -0.307330 0.232729
v -0.193511 -0.293521 0.232729
v -0.194498 -0.273006 0.232729
v -0.180690 -0.257802 0.232729
v -0.156971 -0.247890 0.188123
v -0.153174 -0.237314 0.197376
v -0.126231 -0.261784 0.197376
v -0.136347 -0.266556 0.188123
v -0.124482 -0.298139 0.197376
v -0.134998 -0.294364 0.188123
v -0.148953 -0.325083 0.197376
v -0.153738 -0.314937 0.188123
v -0.185308 -0.326831 0.197376
v -0.181511 -0.316255 0.188123
v -0.212251 -0.302361 0.197376
v -0.202135 -0.297589 0.188123
v -0.214000 -0.266006 0.197376
v -0.203484 -0.269780 0.188123
v -0.189529 -0.239062 0.197376
v -0.184744 -0.249208 0.188123
v -0.153174 -0.237314 -0.224726
v -0.126231 -0.261784 -0.224726
v -0.124482 -0.298139 -0.224726
v -0.148953 -0.325082 -0.224726
v -0.185308 -0.326831 -0.224726
v -0.212251 -0.302361 -0.224726
v -0.214000 -0.266006 -0.224726
v -0.189529 -0.239062 -0.224726
v -0.161843 -0.261463 -0.188123
v -0.149437 -0.272730 -0.188123
v -0.148632 -0.289470 -0.188123
v -0.159899 -0.301877 -0.188123
v -0.176639 -0.302682 -0.188123
v -0.189045 -0.291414 -0.188123
v -0.189850 -0.274674 -0.188123
v -0.178583 -0.262268 -0.188123
v -0.161843 -0.261463 -0.174458
v -0.149437 -0.272730 -0.174458
v -0.148632 -0.289470 -0.174458
v -0.159899 -0.301877 -0.174458
v -0.176639 -0.302682 -0.174458
v -0.189045 -0.291414 -0.174458
v -0.189850 -0.274674 -0.174458
v -0.178583 -0.262268 -0.174458
v -0.164899 -0.269976 -0.161839
v -0.157617 -0.276589 -0.161839
v -0.157145 -0.286414 -0.161839
v -0.163758 -0.293696 -0.161839
v -0.173583 -0.294169 -0.161839
v -0.180865 -0.287555 -0.161839
v -0.181337 -0.277730 -0.161839
v -0.174724 -0.270449 -0.161839
v -0.164899 -0.269976 -0.142766
v -0.157617 -0.276589 -0.142766
v -0.157145 -0.286414 -0.142766
v -0.163758 -0.293696 -0.142766
v -0.173583 -0.294169 -0.142766
v -0.180865 -0.287555 -0.142766
v -0.181337 -0.277730 -0.142766
v -0.174724 -0.270449 -0.142766
v -0.119494 -0.143486 -0.161839
v -0.112212 -0.150100 -0.161839
v -0.129319 -0.143959 -0.161839
v -0.119494 -0.143486 -0.142766
v -0.112212 -0.150100 -0.142766
v -0.129319 -0.143959 -0.142766
v -0.144971 -0.270624 -0.232729
v -0.160175 -0.256815 -0.232729
v -0.143984 -0.291139 -0.232729
v -0.157792 -0.306343 -0.232729
v -0.178307 -0.307329 -0.232729
v -0.193511 -0.293521 -0.232729
v -0.194498 -0.273006 -0.232729
v -0.180690 -0.257802 -0.232729
v -0.156971 -0.247890 -0.188123
v -0.153174 -0.237314 -0.197376
v -0.126231 -0.261784 -0.197376
v -0.136347 -0.266556 -0.188123
v -0.124482 -0.298139 -0.197376
v -0.134998 -0.294364 -0.188123
v -0.148953 -0.325082 -0.197376
v -0.153738 -0.314937 -0.188123
v -0.185308 -0.326831 -0.197376
v -0.181511 -0.316255 -0.188123
v -0.212251 -0.302361 -0.197376
v -0.202135 -0.297589 -0.188123
v -0.214000 -0.266006 -0.197376
v -0.203484 -0.269780 -0.188123
v -0.189529 -0.239062 -0.197376
v -0.184744 -0.249208 -0.188123
vt 0.125720 0.662749
vt 0.135652 0.662786
vt 0.136167 0.673458
vt 0.126235 0.673421
vt 0.105810 0.657659
vt 0.113774 0.656985
vt 0.112189 0.662118
vt 0.107394 0.662522
vt 0.119396 0.663875
vt 0.115579 0.666261
vt 0.119390 0.674263
vt 0.115579 0.672522
vt 0.113773 0.682097
vt 0.112189 0.677235
vt 0.105808 0.682771
vt 0.107394 0.677638
vt 0.148404 0.674480
vt 0.148042 0.684436
vt 0.148042 0.684436
vt 0.148404 0.674480
vt 0.100187 0.675881
vt 0.104004 0.673495
vt 0.100192 0.665493
vt 0.104004 0.667234
vt 0.078460 0.696344
vt 0.088414 0.696344
vt 0.088414 0.702656
vt 0.078460 0.702656
vt 0.115224 0.920405
vt 0.110792 0.920066
vt 0.110792 0.914949
vt 0.115224 0.915288
vt 0.078460 0.676694
vt 0.088414 0.676694
vt 0.088414 0.685590
vt 0.078460 0.685590
vt 0.158321 0.695747
vt 0.148404 0.696119
vt 0.157959 0.684064
vt 0.126235 0.686019
vt 0.136167 0.686056
vt 0.135652 0.693199
vt 0.125720 0.693162
vt 0.158321 0.674109
vt 0.110792 0.914909
vt 0.106031 0.915171
vt 0.105425 0.910272
vt 0.108219 0.910118
vt 0.100410 0.920313
vt 0.097222 0.920081
vt 0.097222 0.914960
vt 0.100410 0.915192
vt 0.138869 0.844639
vt 0.138869 0.847546
vt 0.133895 0.847546
vt 0.133895 0.844639
vt 0.138869 0.835591
vt 0.138869 0.839688
vt 0.133895 0.839688
vt 0.133895 0.835591
vt 0.120440 0.920428
vt 0.120440 0.915311
vt 0.106031 0.920292
vt 0.110792 0.920030
vt 0.129303 0.837887
vt 0.129303 0.840291
vt 0.122360 0.840291
vt 0.122360 0.837887
vt 0.129303 0.843197
vt 0.113175 0.910142
vt 0.115776 0.910340
vt 0.100254 0.910148
vt 0.102126 0.910284
vt 0.138543 0.909469
vt 0.138543 0.914891
vt 0.135782 0.914441
vt 0.135782 0.911258
vt 0.118837 0.910354
vt 0.143576 0.843255
vt 0.140298 0.842606
vt 0.138869 0.840093
vt 0.140128 0.837187
vt 0.143335 0.835591
vt 0.146614 0.836240
vt 0.148042 0.838753
vt 0.146784 0.841659
vt 0.115776 0.903199
vt 0.118837 0.903212
vt 0.145382 0.924899
vt 0.142126 0.923411
vt 0.142126 0.883322
vt 0.145382 0.884810
vt 0.138869 0.924169
vt 0.138869 0.884080
vt 0.122360 0.843197
vt 0.113175 0.903000
vt 0.100254 0.903000
vt 0.102126 0.903136
vt 0.129303 0.844903
vt 0.122360 0.844903
vt 0.132483 0.909482
vt 0.135782 0.909469
vt 0.135782 0.916617
vt 0.132483 0.916629
vt 0.129689 0.909636
vt 0.129689 0.916783
vt 0.144834 0.883322
vt 0.141556 0.882673
vt 0.148042 0.881727
vt 0.129303 0.879006
vt 0.122360 0.879006
vt 0.095331 0.929763
vt 0.088414 0.929523
vt 0.088414 0.892964
vt 0.095331 0.893203
vt 0.104585 0.652150
vt 0.097222 0.641916
vt 0.097222 0.628318
vt 0.104585 0.619322
vt 0.114998 0.620197
vt 0.122360 0.630431
vt 0.122360 0.644030
vt 0.114998 0.653026
vt 0.088414 0.696344
vt 0.088414 0.702656
vt 0.136167 0.686056
vt 0.135652 0.693199
vt 0.088414 0.676694
vt 0.088414 0.685590
vt 0.135652 0.662786
vt 0.136167 0.673458
vt 0.148404 0.696119
vt 0.122875 0.683812
vt 0.122875 0.674181
vt 0.122435 0.692119
vt 0.122828 0.686655
vt 0.161333 0.684548
vt 0.161610 0.693483
vt 0.161640 0.674986
vt 0.161363 0.682591
vt 0.075092 0.684041
vt 0.075092 0.677239
vt 0.075092 0.694793
vt 0.075092 0.686567
vt 0.075092 0.702327
vt 0.075092 0.697499
vt 0.122823 0.672334
vt 0.122430 0.664181
vt 0.125720 0.662749
vt 0.126235 0.673421
vt 0.136167 0.673458
vt 0.135652 0.662786
vt 0.105810 0.657659
vt 0.107394 0.662522
vt 0.112189 0.662118
vt 0.113774 0.656985
vt 0.115579 0.666261
vt 0.119396 0.663875
vt 0.115579 0.672522
vt 0.119390 0.674263
vt 0.112189 0.677235
vt 0.113773 0.682097
vt 0.107394 0.677638
vt 0.105808 0.682771
vt 0.148404 0.674480
vt 0.148404 0.674480
vt 0.148042 0.684436
vt 0.148042 0.684436
vt 0.104004 0.673495
vt 0.100187 0.675881
vt 0.104004 0.667234
vt 0.100192 0.665493
vt 0.078460 0.696344
vt 0.078460 0.702656
vt 0.088414 0.702656
vt 0.088414 0.696344
vt 0.115224 0.920405
vt 0.115224 0.915288
vt 0.110792 0.914949
vt 0.110792 0.920066
vt 0.078460 0.676694
vt 0.078460 0.685590
vt 0.088414 0.685590
vt 0.088414 0.676694
vt 0.158321 0.695747
vt 0.157959 0.684064
vt 0.148404 0.696119
vt 0.126235 0.686019
vt 0.125720 0.693162
vt 0.135652 0.693199
vt 0.136167 0.686056
vt 0.158321 0.674109
vt 0.110792 0.914909
vt 0.108219 0.910118
vt 0.105425 0.910272
vt 0.106031 0.915171
vt 0.100410 0.920313
vt 0.100410 0.915192
vt 0.097222 0.914960
vt 0.097222 0.920081
vt 0.138869 0.844639
vt 0.133895 0.844639
vt 0.133895 0.847546
vt 0.138869 0.847546
vt 0.138869 0.835591
vt 0.133895 0.835591
vt 0.133895 0.839688
vt 0.138869 0.839688
vt 0.120440 0.920428
vt 0.120440 0.915311
vt 0.106031 0.920292
vt 0.110792 0.920030
vt 0.129303 0.837887
vt 0.122360 0.837887
vt 0.122360 0.840291
vt 0.129303 0.840291
vt 0.129303 0.843197
vt 0.115776 0.910340
vt 0.113175 0.910142
vt 0.102126 0.910284
vt 0.100254 0.910148
vt 0.138543 0.909469
vt 0.135782 0.911258
vt 0.135782 0.914441
vt 0.138543 0.914891
vt 0.118837 0.910354
vt 0.143576 0.843255
vt 0.146784 0.841659
vt 0.148042 0.838753
vt 0.146614 0.836240
vt 0.143335 0.835591
vt 0.140128 0.837187
vt 0.138869 0.840093
vt 0.140298 0.842606
vt 0.118837 0.903212
vt 0.115776 0.903199
vt 0.145382 0.924899
vt 0.145382 0.884810
vt 0.142126 0.883322
vt 0.142126 0.923411
vt 0.138869 0.884080
vt 0.138869 0.924169
vt 0.122360 0.843197
vt 0.113175 0.903000
vt 0.102126 0.903136
vt 0.100254 0.903000
vt 0.122360 0.844903
vt 0.129303 0.844903
vt 0.132483 0.909482
vt 0.132483 0.916629
vt 0.135782 0.916617
vt 0.135782 0.909469
vt 0.129689 0.909636
vt 0.129689 0.916783
vt 0.141556 0.882673
vt 0.144834 0.883322
vt 0.148042 0.881727
vt 0.122360 0.879006
vt 0.129303 0.879006
vt 0.095331 0.929763
vt 0.095331 0.893203
vt 0.088414 0.892964
vt 0.088414 0.929523
vt 0.104585 0.652150
vt 0.114998 0.653026
vt 0.122360 0.644030
vt 0.122360 0.630431
vt 0.114998 0.620197
vt 0.104585 0.619322
vt 0.097222 0.628318
vt 0.097222 0.641916
vt 0.088414 0.702656
vt 0.088414 0.696344
vt 0.135652 0.693199
vt 0.136167 0.686056
vt 0.088414 0.685590
vt 0.088414 0.676694
vt 0.136167 0.673458
vt 0.135652 0.662786
vt 0.148404 0.696119
vt 0.122875 0.674181
vt 0.122875 0.683812
vt 0.122828 0.686655
vt 0.122435 0.692119
vt 0.161610 0.693483
vt 0.161333 0.684548
vt 0.161363 0.682591
vt 0.161640 0.674986
vt 0.075092 0.677239
vt 0.075092 0.684041
vt 0.075092 0.686567
vt 0.075092 0.694793
vt 0.075092 0.697499
vt 0.075092 0.702327
vt 0.122430 0.664181
vt 0.122823 0.672334
vn -0.0480 0.9988 0.0000
vn 0.0000 0.0000 -1.0000
vn 0.0185 -0.3853 0.9226
vn -0.7403 0.6723 0.0000
vn 0.0480 -0.9988 -0.0000
vn -0.6723 -0.7403 0.0000
vn 0.7403 -0.6723 0.0000
vn -0.9988 -0.0480 0.0000
vn 0.9988 0.0480 0.0000
vn 0.6723 0.7403 0.0000
vn -0.0401 0.8328 -0.5521
vn -0.8328 -0.0401 -0.5521
vn 0.0401 -0.8328 -0.5521
vn 0.8328 0.0401 -0.5521
vn -0.6172 0.5605 -0.5521
vn -0.5605 -0.6172 -0.5521
vn 0.6172 -0.5605 -0.5521
vn 0.5605 0.6172 -0.5521
vn 0.0000 -0.0000 1.0000
vn -0.9412 0.3379 0.0000
vn 0.9412 -0.3379 -0.0000
vn -0.2855 0.2593 0.9226
vn 0.3853 0.0185 0.9226
vn -0.2593 -0.2855 0.9226
vn -0.0185 0.3853 0.9226
vn 0.2593 0.2855 0.9226
vn 0.2855 -0.2593 0.9226
vn -0.3853 -0.0185 0.9226
vn 0.4475 0.4935 -0.7458
vn 0.6665 0.0322 -0.7448
vn 0.4933 -0.4486 -0.7453
vn 0.0318 -0.6649 -0.7462
vn -0.4475 -0.4935 -0.7458
vn -0.6665 -0.0322 -0.7448
vn -0.4933 0.4486 -0.7453
vn -0.0318 0.6649 -0.7462
vn 0.0185 -0.3853 -0.9226
vn -0.0401 0.8328 0.5521
vn -0.8328 -0.0401 0.5521
vn 0.0401 -0.8328 0.5521
vn 0.8328 0.0401 0.5521
vn -0.6172 0.5605 0.5521
vn -0.5605 -0.6172 0.5521
vn 0.6172 -0.5605 0.5521
vn 0.5605 0.6172 0.5521
vn -0.2855 0.2593 -0.9226
vn 0.3853 0.0185 -0.9226
vn -0.2593 -0.2855 -0.9226
vn -0.0185 0.3853 -0.9226
vn 0.2593 0.2855 -0.9226
vn 0.2855 -0.2593 -0.9226
vn -0.3853 -0.0185 -0.9226
vn 0.4475 0.4935 0.7458
vn 0.6665 0.0322 0.7448
vn 0.4933 -0.4486 0.7453
vn 0.0318 -0.6649 0.7463
vn -0.4475 -0.4935 0.7458
vn -0.6665 -0.0322 0.7448
vn -0.4933 0.4486 0.7453
vn -0.0318 0.6649 0.7462
usemtl Material.003
s 1
f 69/1/1 8/2/1 1/3/1 56/4/1
f 58/5/2 60/6/2 11/7/2 10/8/2
f 60/6/2 62/9/2 12/10/2 11/7/2
f 62/9/2 64/11/2 13/12/2 12/10/2
f 64/11/2 66/13/2 14/14/2 13/12/2
f 66/13/2 68/15/2 15/16/2 14/14/2
f 5/17/3 4/18/3 50/19/3 51/20/3
f 68/15/2 70/21/2 16/22/2 15/16/2
f 70/21/2 55/23/2 9/24/2 16/22/2
f 67/25/4 7/26/4 8/27/4 69/28/4
f 12/29/5 13/30/5 21/31/5 20/32/5
f 63/33/6 5/34/6 6/35/6 65/36/6
f 59/37/7 3/38/7 4/18/7 61/39/7
f 65/36/8 6/35/8 7/26/8 67/25/8
f 57/40/9 2/41/9 3/42/9 59/43/9
f 56/4/10 1/3/10 2/41/10 57/40/10
f 61/39/5 4/18/5 5/17/5 63/44/5
f 24/45/11 17/46/11 25/47/11 32/48/11
f 10/49/9 11/50/9 19/51/9 18/52/9
f 15/53/4 16/54/4 24/55/4 23/56/4
f 13/57/6 14/58/6 22/59/6 21/60/6
f 11/61/7 12/29/7 20/32/7 19/62/7
f 9/63/10 10/49/10 18/52/10 17/46/10
f 16/64/1 9/63/1 17/46/1 24/45/1
f 14/58/8 15/53/8 23/56/8 22/59/8
f 29/65/6 30/66/6 38/67/6 37/68/6
f 22/59/12 23/56/12 31/69/12 30/66/12
f 20/32/13 21/31/13 29/70/13 28/71/13
f 18/52/14 19/51/14 27/72/14 26/73/14
f 23/74/15 24/75/15 32/76/15 31/77/15
f 21/60/16 22/59/16 30/66/16 29/65/16
f 19/62/17 20/32/17 28/71/17 27/78/17
f 17/46/18 18/52/18 26/73/18 25/47/18
f 33/79/2 34/80/2 35/81/2 36/82/2 37/83/2 38/84/2 39/85/2 40/86/2
f 27/78/7 28/71/7 36/87/7 35/88/7
f 32/89/19 25/90/19 41/91/19 43/92/19
f 25/90/19 26/93/19 42/94/19 41/91/19
f 30/66/8 31/69/8 39/95/8 38/67/8
f 28/71/5 29/70/5 37/96/5 36/87/5
f 26/73/9 27/72/9 35/97/9 34/98/9
f 31/69/4 32/99/4 40/100/4 39/95/4
f 41/101/10 42/102/10 45/103/10 44/104/10
f 43/105/1 41/101/1 44/104/1 46/106/1
f 34/80/2 33/79/2 44/107/2 45/108/2
f 33/79/2 40/86/2 46/109/2 44/107/2
f 40/100/20 32/99/20 43/110/20 46/111/20
f 26/112/21 34/113/21 45/114/21 42/115/21
f 47/116/19 48/117/19 54/118/19 53/119/19 52/120/19 51/121/19 50/122/19 49/123/19
f 8/27/22 7/26/22 53/124/22 54/125/22
f 3/42/23 2/41/23 47/126/23 49/127/23
f 6/35/24 5/34/24 51/128/24 52/129/24
f 1/3/25 8/2/25 54/130/25 48/131/25
f 2/41/26 1/3/26 48/131/26 47/126/26
f 4/18/27 3/38/27 49/132/27 50/19/27
f 7/26/28 6/35/28 52/129/28 53/124/28
f 56/4/29 57/40/29 58/133/29 55/134/29
f 57/40/30 59/43/30 60/135/30 58/136/30
f 59/37/31 61/39/31 62/137/31 60/138/31
f 61/39/32 63/44/32 64/139/32 62/140/32
f 63/33/33 65/36/33 66/141/33 64/142/33
f 65/36/34 67/25/34 68/143/34 66/144/34
f 67/25/35 69/28/35 70/145/35 68/146/35
f 69/1/36 56/4/36 55/147/36 70/148/36
f 55/23/2 58/5/2 10/8/2 9/24/2
f 139/149/1 126/150/1 71/151/1 78/152/1
f 128/153/19 80/154/19 81/155/19 130/156/19
f 130/156/19 81/155/19 82/157/19 132/158/19
f 132/158/19 82/157/19 83/159/19 134/160/19
f 134/160/19 83/159/19 84/161/19 136/162/19
f 136/162/19 84/161/19 85/163/19 138/164/19
f 75/165/37 121/166/37 120/167/37 74/168/37
f 138/164/19 85/163/19 86/169/19 140/170/19
f 140/170/19 86/169/19 79/171/19 125/172/19
f 137/173/4 139/174/4 78/175/4 77/176/4
f 82/177/5 90/178/5 91/179/5 83/180/5
f 133/181/6 135/182/6 76/183/6 75/184/6
f 129/185/7 131/186/7 74/168/7 73/187/7
f 135/182/8 137/173/8 77/176/8 76/183/8
f 127/188/9 129/189/9 73/190/9 72/191/9
f 126/150/10 127/188/10 72/191/10 71/151/10
f 131/186/5 133/192/5 75/165/5 74/168/5
f 94/193/38 102/194/38 95/195/38 87/196/38
f 80/197/9 88/198/9 89/199/9 81/200/9
f 85/201/4 93/202/4 94/203/4 86/204/4
f 83/205/6 91/206/6 92/207/6 84/208/6
f 81/209/7 89/210/7 90/178/7 82/177/7
f 79/211/10 87/196/10 88/198/10 80/197/10
f 86/212/1 94/193/1 87/196/1 79/211/1
f 84/208/8 92/207/8 93/202/8 85/201/8
f 99/213/6 107/214/6 108/215/6 100/216/6
f 92/207/39 100/216/39 101/217/39 93/202/39
f 90/178/40 98/218/40 99/219/40 91/179/40
f 88/198/41 96/220/41 97/221/41 89/199/41
f 93/222/42 101/223/42 102/224/42 94/225/42
f 91/206/43 99/213/43 100/216/43 92/207/43
f 89/210/44 97/226/44 98/218/44 90/178/44
f 87/196/45 95/195/45 96/220/45 88/198/45
f 103/227/19 110/228/19 109/229/19 108/230/19 107/231/19 106/232/19 105/233/19 104/234/19
f 97/226/7 105/235/7 106/236/7 98/218/7
f 102/237/2 113/238/2 111/239/2 95/240/2
f 95/240/2 111/239/2 112/241/2 96/242/2
f 100/216/8 108/215/8 109/243/8 101/217/8
f 98/218/5 106/236/5 107/244/5 99/219/5
f 96/220/9 104/245/9 105/246/9 97/221/9
f 101/217/4 109/243/4 110/247/4 102/248/4
f 111/249/10 114/250/10 115/251/10 112/252/10
f 113/253/1 116/254/1 114/250/1 111/249/1
f 104/234/19 115/255/19 114/256/19 103/227/19
f 103/227/19 114/256/19 116/257/19 110/228/19
f 110/247/20 116/258/20 113/259/20 102/248/20
f 96/260/21 112/261/21 115/262/21 104/263/21
f 117/264/2 119/265/2 120/266/2 121/267/2 122/268/2 123/269/2 124/270/2 118/271/2
f 78/175/46 124/272/46 123/273/46 77/176/46
f 73/190/47 119/274/47 117/275/47 72/191/47
f 76/183/48 122/276/48 121/277/48 75/184/48
f 71/151/49 118/278/49 124/279/49 78/152/49
f 72/191/50 117/275/50 118/278/50 71/151/50
f 74/168/51 120/167/51 119/280/51 73/187/51
f 77/176/52 123/273/52 122/276/52 76/183/52
f 126/150/53 125/281/53 128/282/53 127/188/53
f 127/188/54 128/283/54 130/284/54 129/189/54
f 129/185/55 130/285/55 132/286/55 131/186/55
f 131/186/56 132/287/56 134/288/56 133/192/56
f 133/181/57 134/289/57 136/290/57 135/182/57
f 135/182/58 136/291/58 138/292/58 137/173/58
f 137/173/59 138/293/59 140/294/59 139/174/59
f 139/149/60 140/295/60 125/296/60 126/150/60
f 125/172/19 79/171/19 80/154/19 128/153/19
