# Blender v3.1.2 OBJ File: ''
# www.blender.org
mtllib Propeller.mtl
o Propeller_Cube.003
v -0.125624 0.016235 0.016234
v -0.125624 0.016235 -0.016234
v -0.002536 0.030982 0.030981
v -0.002536 0.030982 -0.030981
v -0.021995 0.040757 -0.040757
v -0.021995 0.040757 0.040757
v -0.074847 0.034463 0.034462
v -0.074847 0.034463 -0.034462
v -0.129495 0.000000 0.018533
v -0.129495 0.018533 0.000000
v -0.129495 0.000000 -0.018533
v -0.008156 0.039471 -0.039470
v -0.001606 0.000000 -0.037770
v -0.001606 0.037771 0.000000
v -0.001606 0.000000 0.037770
v -0.008156 0.039471 0.039471
v -0.021995 0.056041 0.000000
v -0.021995 0.000000 0.056041
v -0.021995 0.000000 -0.056040
v -0.074847 0.000000 -0.047386
v -0.074847 0.047386 0.000000
v -0.074847 0.000000 0.047386
v -0.137618 0.000000 0.000000
v -0.008064 0.000000 -0.054313
v 0.000344 0.000000 0.000000
v -0.008064 0.054314 0.000000
v -0.008064 0.000000 0.054314
v -0.064210 -0.000000 0.021792
v -0.058771 0.077934 0.013217
v -0.064210 -0.000000 -0.021791
v -0.058771 0.077934 -0.013217
v -0.036265 -0.000000 0.021792
v -0.041704 0.077934 0.013217
v -0.036265 -0.000000 -0.021791
v -0.041704 0.077934 -0.013217
v -0.060709 0.156275 0.016219
v -0.060709 0.156275 -0.016219
v -0.039766 0.156275 -0.016219
v -0.039766 0.156275 0.016219
v -0.053524 0.322316 0.009726
v -0.053524 0.322316 -0.009726
v -0.046951 0.322316 -0.009726
v -0.046951 0.322316 0.009726
v -0.125624 -0.016234 0.016234
v -0.125624 -0.016234 -0.016234
v -0.002536 -0.030981 0.030981
v -0.002536 -0.030981 -0.030981
v -0.021995 -0.040756 -0.040757
v -0.021995 -0.040756 0.040757
v -0.074847 -0.034462 0.034462
v -0.074847 -0.034462 -0.034462
v -0.129495 -0.018533 0.000000
v -0.008156 -0.039470 -0.039470
v -0.001606 -0.037770 0.000000
v -0.008156 -0.039470 0.039471
v -0.021995 -0.056040 0.000000
v -0.074847 -0.047385 0.000000
v -0.008064 -0.054313 0.000000
v -0.064210 -0.018873 -0.010896
v -0.058771 -0.050414 0.060885
v -0.064210 0.018871 0.010896
v -0.058771 -0.027522 0.074101
v -0.036265 -0.018873 -0.010896
v -0.041704 -0.050414 0.060885
v -0.036265 0.018871 0.010896
v -0.041704 -0.027522 0.074101
v -0.060709 -0.092184 0.127229
v -0.060709 -0.064093 0.143448
v -0.039766 -0.064093 0.143448
v -0.039766 -0.092184 0.127229
v -0.053524 -0.169582 0.274271
v -0.053524 -0.152736 0.283997
v -0.046951 -0.152736 0.283997
v -0.046951 -0.169582 0.274271
v -0.064210 0.018872 -0.010896
v -0.058771 -0.027521 -0.074102
v -0.064210 -0.018872 0.010896
v -0.058771 -0.050414 -0.060885
v -0.036265 0.018872 -0.010896
v -0.041704 -0.027521 -0.074102
v -0.036265 -0.018872 0.010896
v -0.041704 -0.050414 -0.060885
v -0.060709 -0.064092 -0.143448
v -0.060709 -0.092184 -0.127229
v -0.039766 -0.092184 -0.127229
v -0.039766 -0.064092 -0.143448
v -0.053524 -0.152735 -0.283997
v -0.053524 -0.169581 -0.274271
v -0.046951 -0.169581 -0.274271
v -0.046951 -0.152735 -0.283997
vt 0.101082 0.635198
vt 0.102240 0.631163
vt 0.106377 0.631157
vt 0.105687 0.635875
vt 0.110419 0.632263
vt 0.110419 0.636454
vt 0.154267 0.585276
vt 0.164667 0.585308
vt 0.164226 0.589849
vt 0.154154 0.589849
vt 0.141022 0.630543
vt 0.149086 0.637607
vt 0.146306 0.638868
vt 0.139542 0.634480
vt 0.145149 0.646847
vt 0.136162 0.643467
vt 0.140761 0.653612
vt 0.132782 0.652455
vt 0.130455 0.550311
vt 0.134615 0.549191
vt 0.134088 0.567724
vt 0.125336 0.567252
vt 0.138706 0.550546
vt 0.142852 0.567751
vt 0.159381 0.550541
vt 0.163533 0.567716
vt 0.154739 0.567689
vt 0.155282 0.549191
vt 0.149086 0.648328
vt 0.123435 0.589314
vt 0.123237 0.584759
vt 0.133587 0.585317
vt 0.133457 0.589885
vt 0.143952 0.585348
vt 0.143496 0.589885
vt 0.142022 0.656392
vt 0.131301 0.656392
vt 0.133750 0.630543
vt 0.123678 0.630543
vt 0.123237 0.626002
vt 0.133637 0.625970
vt 0.124371 0.608410
vt 0.133165 0.608383
vt 0.128523 0.591235
vt 0.132622 0.589885
vt 0.113556 0.588871
vt 0.121803 0.588871
vt 0.120124 0.630997
vt 0.115179 0.630997
vt 0.164669 0.671851
vt 0.166342 0.652019
vt 0.171979 0.652019
vt 0.173899 0.671851
vt 0.056765 0.631189
vt 0.058974 0.611342
vt 0.065692 0.611342
vt 0.067842 0.631189
vt 0.173899 0.671851
vt 0.175820 0.652019
vt 0.181457 0.652019
vt 0.183130 0.671851
vt 0.078922 0.549191
vt 0.076742 0.569004
vt 0.070022 0.569004
vt 0.067842 0.549191
vt 0.077075 0.642212
vt 0.067842 0.642212
vt 0.067842 0.631132
vt 0.077075 0.631132
vt 0.182039 0.632110
vt 0.175121 0.632110
vt 0.177573 0.589885
vt 0.179744 0.589885
vt 0.165760 0.632110
vt 0.172678 0.632110
vt 0.058188 0.591444
vt 0.066433 0.591444
vt 0.077506 0.588920
vt 0.069259 0.588920
vt 0.168055 0.589885
vt 0.170226 0.589885
vt 0.097695 0.636077
vt 0.095525 0.636077
vt 0.095525 0.631132
vt 0.097695 0.631132
vt 0.075855 0.631132
vt 0.070910 0.631132
vt 0.105124 0.640495
vt 0.101143 0.639342
vt 0.109322 0.640443
vt 0.144165 0.589322
vt 0.143952 0.584764
vt 0.131562 0.633323
vt 0.130301 0.630543
vt 0.127174 0.640087
vt 0.126017 0.648067
vt 0.159295 0.591232
vt 0.163505 0.608387
vt 0.154742 0.608360
vt 0.155200 0.589885
vt 0.145988 0.607952
vt 0.151044 0.591027
vt 0.151130 0.550324
vt 0.146017 0.567256
vt 0.123237 0.638607
vt 0.164229 0.630519
vt 0.154191 0.630519
vt 0.154305 0.625944
vt 0.164669 0.625975
vt 0.144166 0.630021
vt 0.143952 0.625461
vt 0.123237 0.649328
vt 0.143739 0.630016
vt 0.141887 0.607950
vt 0.136774 0.591018
vt 0.110717 0.591420
vt 0.102474 0.591420
vt 0.104065 0.549191
vt 0.109008 0.549191
vt 0.164669 0.630593
vt 0.163542 0.646653
vt 0.157907 0.646608
vt 0.155442 0.630519
vt 0.123237 0.549192
vt 0.121039 0.568944
vt 0.114319 0.568944
vt 0.112158 0.549192
vt 0.183130 0.662382
vt 0.184462 0.644133
vt 0.190100 0.644133
vt 0.192363 0.662382
vt 0.078922 0.631132
vt 0.081102 0.611319
vt 0.087822 0.611319
vt 0.090002 0.631132
vt 0.077075 0.631132
vt 0.086300 0.631456
vt 0.086300 0.641108
vt 0.077075 0.640784
vt 0.190125 0.627267
vt 0.183206 0.627267
vt 0.184438 0.589885
vt 0.186609 0.589885
vt 0.164669 0.664293
vt 0.157754 0.664237
vt 0.080339 0.591403
vt 0.088586 0.591403
vt 0.163534 0.700016
vt 0.161364 0.699999
vt 0.058934 0.635531
vt 0.056765 0.635451
vt 0.056765 0.631189
vt 0.058934 0.631268
vt 0.081990 0.549191
vt 0.086935 0.549191
vt 0.192363 0.662382
vt 0.194625 0.644133
vt 0.200264 0.644133
vt 0.201596 0.662382
vt 0.101082 0.631157
vt 0.103214 0.611331
vt 0.109931 0.611331
vt 0.112158 0.631157
vt 0.112158 0.700494
vt 0.114622 0.684405
vt 0.120257 0.684359
vt 0.121385 0.700419
vt 0.101082 0.549191
vt 0.098902 0.569004
vt 0.092182 0.569004
vt 0.090002 0.549191
vt 0.086300 0.631456
vt 0.095525 0.631132
vt 0.095525 0.640784
vt 0.086300 0.641108
vt 0.121385 0.666720
vt 0.114470 0.666776
vt 0.118080 0.631014
vt 0.120250 0.630997
vt 0.194601 0.627267
vt 0.201520 0.627267
vt 0.099666 0.588920
vt 0.091419 0.588920
vt 0.198116 0.589885
vt 0.200287 0.589885
vt 0.099865 0.635395
vt 0.097695 0.635474
vt 0.097695 0.631212
vt 0.099865 0.631132
vt 0.098015 0.631132
vt 0.093070 0.631132
vt 0.059870 0.549191
vt 0.064814 0.549191
vn -0.8863 0.3274 0.3274
vn -0.8863 0.3274 -0.3274
vn 0.1171 0.3493 -0.9297
vn 0.9095 0.1340 -0.3934
vn 0.9978 0.0464 -0.0464
vn 0.9978 0.0464 0.0464
vn -0.4316 0.8544 -0.2895
vn -0.4316 0.8544 0.2895
vn -0.4316 0.2895 -0.8544
vn 0.9095 0.3934 -0.1340
vn 0.1171 0.9297 -0.3493
vn 0.1171 0.9297 0.3493
vn 0.9095 0.3934 0.1340
vn -0.1516 0.3471 -0.9255
vn 0.9095 0.1340 0.3934
vn 0.1171 0.3493 0.9297
vn -0.1516 0.3471 0.9255
vn -0.4316 0.2895 0.8544
vn -0.9991 -0.0216 0.0374
vn 0.0000 0.1094 -0.9940
vn -0.9976 0.0696 0.0000
vn 0.0000 0.1094 0.9940
vn 0.9976 0.0696 0.0000
vn 0.0000 -1.0000 0.0000
vn 0.0000 0.0391 0.9992
vn 0.0000 -0.0383 0.9993
vn 0.0000 -0.0383 -0.9993
vn -0.9997 -0.0247 0.0000
vn 0.9997 -0.0247 0.0000
vn 0.0000 0.0391 -0.9992
vn 0.0000 1.0000 0.0000
vn 0.9991 0.0432 0.0000
vn -0.1516 0.9255 0.3471
vn -0.1516 0.9255 -0.3471
vn -0.8863 -0.3274 0.3274
vn -0.8863 -0.3274 -0.3274
vn 0.1171 -0.3493 -0.9297
vn 0.9095 -0.1340 -0.3934
vn 0.9978 -0.0464 -0.0464
vn 0.9978 -0.0464 0.0464
vn -0.4316 -0.8544 -0.2895
vn -0.4316 -0.8544 0.2895
vn -0.4316 -0.2895 -0.8544
vn 0.9095 -0.3934 -0.1340
vn 0.1171 -0.9297 -0.3493
vn 0.1171 -0.9297 0.3493
vn 0.9095 -0.3934 0.1340
vn -0.1516 -0.3471 -0.9255
vn 0.9095 -0.1340 0.3934
vn 0.1171 -0.3493 0.9297
vn -0.1516 -0.3471 0.9255
vn -0.4316 -0.2895 0.8544
vn -0.1516 -0.9255 0.3471
vn -0.1516 -0.9255 -0.3471
vn -0.9991 -0.0216 -0.0374
vn 0.0000 0.8061 0.5917
vn -0.9976 -0.0348 0.0603
vn 0.0000 -0.9155 -0.4023
vn 0.9976 -0.0348 0.0603
vn 0.0000 0.5000 -0.8660
vn 0.0000 -0.8849 -0.4658
vn 0.0000 -0.8462 -0.5328
vn 0.0000 0.8845 0.4665
vn -0.9997 0.0124 -0.0214
vn 0.9997 0.0124 -0.0214
vn 0.0000 0.8458 0.5335
vn 0.0000 -0.5000 0.8660
vn 0.9991 -0.0216 0.0374
vn 0.0000 -0.9155 0.4023
vn -0.9976 -0.0348 -0.0603
vn 0.0000 0.8061 -0.5917
vn 0.9976 -0.0348 -0.0603
vn 0.0000 0.5000 0.8660
vn 0.0000 0.8458 -0.5335
vn 0.0000 0.8845 -0.4665
vn 0.0000 -0.8462 0.5328
vn -0.9997 0.0124 0.0214
vn 0.9997 0.0124 0.0214
vn 0.0000 -0.8849 0.4658
vn 0.0000 -0.5000 -0.8660
vn 0.9991 -0.0216 -0.0374
vn -0.9991 0.0432 0.0000
usemtl Material.004
s 1
f 9/1/1 1/2/1 10/3/1 23/4/1
f 23/4/2 10/3/2 2/5/2 11/6/2
f 19/7/3 5/8/3 12/9/3 24/10/3
f 24/11/4 12/12/4 4/13/4 13/14/4
f 13/14/5 4/13/5 14/15/5 25/16/5
f 25/16/6 14/15/6 3/17/6 15/18/6
f 2/19/7 10/20/7 21/21/7 8/22/7
f 21/21/8 10/20/8 1/23/8 7/24/8
f 2/25/9 8/26/9 20/27/9 11/28/9
f 4/13/10 12/12/10 26/29/10 14/15/10
f 12/30/11 5/31/11 17/32/11 26/33/11
f 26/33/12 17/32/12 6/34/12 16/35/12
f 14/15/13 26/29/13 16/36/13 3/17/13
f 8/26/14 5/8/14 19/7/14 20/27/14
f 15/18/15 3/17/15 16/36/15 27/37/15
f 27/38/16 16/39/16 6/40/16 18/41/16
f 6/40/17 7/42/17 22/43/17 18/41/17
f 7/42/18 1/44/18 9/45/18 22/43/18
f 68/46/19 67/47/19 71/48/19 72/49/19
f 30/50/20 31/51/20 35/52/20 34/53/20
f 28/54/21 29/55/21 31/56/21 30/57/21
f 32/58/22 33/59/22 29/60/22 28/61/22
f 34/62/23 35/63/23 33/64/23 32/65/23
f 30/66/24 34/67/24 32/68/24 28/69/24
f 36/70/25 39/71/25 43/72/25 40/73/25
f 29/60/26 33/59/26 39/71/26 36/70/26
f 35/52/27 31/51/27 37/74/27 38/75/27
f 31/56/28 29/55/28 36/76/28 37/77/28
f 33/64/29 35/63/29 38/78/29 39/79/29
f 38/75/30 37/74/30 41/80/30 42/81/30
f 42/82/31 41/83/31 40/84/31 43/85/31
f 39/79/32 38/78/32 42/86/32 43/87/32
f 6/34/33 17/32/33 21/21/33 7/24/33
f 8/22/34 21/21/34 17/32/34 5/31/34
f 9/1/35 23/4/35 52/88/35 44/89/35
f 23/4/36 11/6/36 45/90/36 52/88/36
f 19/7/37 24/10/37 53/91/37 48/92/37
f 24/11/38 13/14/38 47/93/38 53/94/38
f 13/14/39 25/16/39 54/95/39 47/93/39
f 25/16/40 15/18/40 46/96/40 54/95/40
f 45/97/41 51/98/41 57/99/41 52/100/41
f 57/99/42 50/101/42 44/102/42 52/100/42
f 45/103/43 11/28/43 20/27/43 51/104/43
f 47/93/44 54/95/44 58/105/44 53/94/44
f 53/106/45 58/107/45 56/108/45 48/109/45
f 58/107/46 55/110/46 49/111/46 56/108/46
f 54/95/47 46/96/47 55/112/47 58/105/47
f 51/104/48 20/27/48 19/7/48 48/92/48
f 15/18/49 27/37/49 55/112/49 46/96/49
f 27/38/50 18/41/50 49/111/50 55/113/50
f 49/111/51 18/41/51 22/43/51 50/114/51
f 50/114/52 22/43/52 9/45/52 44/115/52
f 49/111/53 50/101/53 57/99/53 56/108/53
f 51/98/54 48/109/54 56/108/54 57/99/54
f 84/116/55 83/117/55 87/118/55 88/119/55
f 61/120/56 62/121/56 66/122/56 65/123/56
f 59/124/57 60/125/57 62/126/57 61/127/57
f 63/128/58 64/129/58 60/130/58 59/131/58
f 65/132/59 66/133/59 64/134/59 63/135/59
f 61/136/60 65/137/60 63/138/60 59/139/60
f 67/140/61 70/141/61 74/142/61 71/143/61
f 60/130/62 64/129/62 70/141/62 67/140/62
f 66/122/63 62/121/63 68/144/63 69/145/63
f 62/126/64 60/125/64 67/47/64 68/46/64
f 64/134/65 66/133/65 69/146/65 70/147/65
f 69/145/66 68/144/66 72/148/66 73/149/66
f 73/150/67 72/151/67 71/152/67 74/153/67
f 70/147/68 69/146/68 73/154/68 74/155/68
f 77/156/69 78/157/69 82/158/69 81/159/69
f 75/160/70 76/161/70 78/162/70 77/163/70
f 79/164/71 80/165/71 76/166/71 75/167/71
f 81/168/72 82/169/72 80/170/72 79/171/72
f 77/172/73 81/173/73 79/174/73 75/175/73
f 83/176/74 86/177/74 90/178/74 87/179/74
f 76/166/75 80/165/75 86/177/75 83/176/75
f 82/158/76 78/157/76 84/180/76 85/181/76
f 78/162/77 76/161/77 83/117/77 84/116/77
f 80/170/78 82/169/78 85/182/78 86/183/78
f 85/181/79 84/180/79 88/184/79 89/185/79
f 89/186/80 88/187/80 87/188/80 90/189/80
f 86/183/81 85/182/81 89/190/81 90/191/81
f 37/77/82 36/76/82 40/192/82 41/193/82
