# Blender v3.1.2 OBJ File: ''
# www.blender.org
mtllib RearWheel.mtl
o RearWheel_Cube.004
v 0.960992 -0.257444 0.011002
v 0.984205 -0.270475 0.011002
v 0.991405 -0.296103 0.011002
v 0.978375 -0.319316 0.011002
v 0.952747 -0.326516 0.011002
v 0.929534 -0.313485 0.011002
v 0.922333 -0.287857 0.011002
v 0.935364 -0.264644 0.011002
v 0.911203 -0.261502 0.011002
v 0.922962 -0.248941 0.011002
v 0.889369 -0.165522 0.011002
v 0.905620 -0.167462 0.011002
v 0.976736 -0.276351 0.020153
v 0.959866 -0.266880 0.020153
v 0.981969 -0.294976 0.020153
v 0.972499 -0.311847 0.020153
v 0.953873 -0.317080 0.020153
v 0.937002 -0.307609 0.020153
v 0.931770 -0.288984 0.020153
v 0.941240 -0.272113 0.020153
v 0.960992 -0.257444 -0.000000
v 0.984205 -0.270475 -0.000000
v 0.991405 -0.296103 -0.000000
v 0.978375 -0.319316 -0.000000
v 0.952747 -0.326516 -0.000000
v 0.929534 -0.313485 -0.000000
v 0.922333 -0.287857 -0.000000
v 0.935364 -0.264644 -0.000000
v 0.911203 -0.261502 -0.000000
v 0.922962 -0.248941 -0.000000
v 0.889369 -0.165522 -0.000000
v 0.905620 -0.167462 -0.000000
v 0.960992 -0.257444 -0.011002
v 0.984205 -0.270475 -0.011002
v 0.991405 -0.296103 -0.011002
v 0.978375 -0.319316 -0.011002
v 0.952747 -0.326516 -0.011002
v 0.929534 -0.313485 -0.011002
v 0.922333 -0.287857 -0.011002
v 0.935364 -0.264644 -0.011002
v 0.911203 -0.261502 -0.011002
v 0.922962 -0.248941 -0.011002
v 0.889369 -0.165522 -0.011002
v 0.905620 -0.167462 -0.011002
v 0.976736 -0.276351 -0.020153
v 0.959866 -0.266880 -0.020153
v 0.981969 -0.294976 -0.020153
v 0.972499 -0.311847 -0.020153
v 0.953873 -0.317080 -0.020153
v 0.937002 -0.307609 -0.020153
v 0.931770 -0.288984 -0.020153
v 0.941240 -0.272113 -0.020153
vt 0.155188 0.635615
vt 0.151193 0.635546
vt 0.151193 0.626157
vt 0.155188 0.626226
vt 0.151562 0.619322
vt 0.155557 0.619391
vt 0.129689 0.709309
vt 0.125698 0.709383
vt 0.125438 0.701441
vt 0.129429 0.701367
vt 0.125698 0.693273
vt 0.129689 0.693199
vt 0.155557 0.619322
vt 0.159561 0.619322
vt 0.159561 0.624629
vt 0.155557 0.624629
vt 0.159561 0.632594
vt 0.155557 0.632594
vt 0.155557 0.642058
vt 0.151562 0.641989
vt 0.162892 0.625869
vt 0.162892 0.631657
vt 0.080487 0.866215
vt 0.085885 0.865789
vt 0.097222 0.888176
vt 0.093486 0.892963
vt 0.078216 0.857491
vt 0.085992 0.859041
vt 0.155557 0.848864
vt 0.159561 0.848864
vt 0.159561 0.857295
vt 0.155557 0.857295
vt 0.154303 0.890253
vt 0.150308 0.890184
vt 0.150185 0.884917
vt 0.154180 0.884986
vt 0.159561 0.886794
vt 0.155557 0.886794
vt 0.094199 0.629110
vt 0.091759 0.635702
vt 0.086037 0.639568
vt 0.080386 0.638441
vt 0.078115 0.632983
vt 0.080555 0.626390
vt 0.086277 0.622525
vt 0.091928 0.623651
vt 0.122360 0.701397
vt 0.122550 0.695461
vt 0.094098 0.620871
vt 0.097222 0.628382
vt 0.085992 0.642771
vt 0.078216 0.641221
vt 0.075092 0.633711
vt 0.078449 0.624640
vt 0.086322 0.619322
vt 0.093865 0.637453
vt 0.148042 0.634114
vt 0.148042 0.627291
vt 0.151413 0.864864
vt 0.155407 0.864933
vt 0.151562 0.858259
vt 0.155557 0.858328
vt 0.151193 0.626157
vt 0.151193 0.635546
vt 0.151562 0.619322
vt 0.125438 0.701441
vt 0.125698 0.709383
vt 0.125698 0.693273
vt 0.159561 0.624629
vt 0.159561 0.619322
vt 0.159561 0.632594
vt 0.151562 0.641989
vt 0.162892 0.631657
vt 0.162892 0.625869
vt 0.080487 0.866215
vt 0.093486 0.892963
vt 0.097222 0.888176
vt 0.085885 0.865789
vt 0.078216 0.857491
vt 0.085992 0.859041
vt 0.159561 0.857295
vt 0.159561 0.848864
vt 0.150185 0.884917
vt 0.150308 0.890184
vt 0.159561 0.886794
vt 0.094199 0.629110
vt 0.091928 0.623651
vt 0.086277 0.622525
vt 0.080555 0.626390
vt 0.078115 0.632983
vt 0.080386 0.638441
vt 0.086037 0.639568
vt 0.091759 0.635702
vt 0.122550 0.695461
vt 0.122360 0.701397
vt 0.094098 0.620871
vt 0.097222 0.628382
vt 0.085992 0.642771
vt 0.078216 0.641221
vt 0.075092 0.633711
vt 0.078449 0.624640
vt 0.086322 0.619322
vt 0.093865 0.637453
vt 0.148042 0.627291
vt 0.148042 0.634114
vt 0.151413 0.864864
vt 0.151562 0.858259
vn 0.4895 0.8720 0.0000
vn 0.9627 0.2705 0.0000
vn 0.8720 -0.4895 0.0000
vn 0.2705 -0.9627 0.0000
vn -0.4895 -0.8720 0.0000
vn -0.9627 -0.2705 0.0000
vn -0.2705 0.9627 0.0000
vn -0.6947 -0.1952 0.6923
vn 0.0000 -0.0000 1.0000
vn -0.9212 -0.3891 0.0000
vn 0.1185 0.9929 0.0000
vn -0.9751 -0.2218 0.0000
vn 0.1952 -0.6947 0.6923
vn 0.6947 0.1952 0.6923
vn -0.6293 0.3532 0.6923
vn -0.3532 -0.6293 0.6923
vn 0.6293 -0.3532 0.6923
vn -0.1952 0.6947 0.6923
vn 0.3532 0.6293 0.6923
vn 0.9781 0.2082 0.0000
vn 0.7848 0.6198 0.0000
vn -0.6947 -0.1952 -0.6923
vn 0.0000 0.0000 -1.0000
vn 0.1952 -0.6947 -0.6923
vn 0.6947 0.1952 -0.6923
vn -0.6293 0.3532 -0.6923
vn -0.3532 -0.6293 -0.6923
vn 0.6293 -0.3532 -0.6923
vn -0.1952 0.6947 -0.6923
vn 0.3532 0.6293 -0.6923
usemtl Material.001
s 1
f 21/1/1 1/2/1 2/3/1 22/4/1
f 22/4/2 2/3/2 3/5/2 23/6/2
f 23/7/3 3/8/3 4/9/3 24/10/3
f 24/10/4 4/9/4 5/11/4 25/12/4
f 25/13/5 5/14/5 6/15/5 26/16/5
f 26/16/6 6/15/6 7/17/6 27/18/6
f 28/19/7 8/20/7 1/2/7 21/1/7
f 7/17/8 6/15/8 18/21/8 19/22/8
f 9/23/9 10/24/9 12/25/9 11/26/9
f 7/27/9 8/28/9 10/24/9 9/23/9
f 27/29/10 7/30/10 9/31/10 29/32/10
f 31/33/11 11/34/11 12/35/11 32/36/11
f 29/32/12 9/31/12 11/37/12 31/38/12
f 13/39/9 14/40/9 20/41/9 19/42/9 18/43/9 17/44/9 16/45/9 15/46/9
f 5/11/13 4/9/13 16/47/13 17/48/13
f 3/49/14 2/50/14 13/39/14 15/46/14
f 8/51/15 7/52/15 19/42/15 20/41/15
f 6/53/16 5/54/16 17/44/16 18/43/16
f 4/55/17 3/49/17 15/46/17 16/45/17
f 1/56/18 8/51/18 20/41/18 14/40/18
f 2/3/19 1/2/19 14/57/19 13/58/19
f 10/59/20 30/60/20 32/36/20 12/35/20
f 8/61/21 28/62/21 30/60/21 10/59/21
f 21/1/1 22/4/1 34/63/1 33/64/1
f 22/4/2 23/6/2 35/65/2 34/63/2
f 23/7/3 24/10/3 36/66/3 35/67/3
f 24/10/4 25/12/4 37/68/4 36/66/4
f 25/13/5 26/16/5 38/69/5 37/70/5
f 26/16/6 27/18/6 39/71/6 38/69/6
f 28/19/7 21/1/7 33/64/7 40/72/7
f 39/71/22 51/73/22 50/74/22 38/69/22
f 41/75/23 43/76/23 44/77/23 42/78/23
f 39/79/23 41/75/23 42/78/23 40/80/23
f 27/29/10 29/32/10 41/81/10 39/82/10
f 31/33/11 32/36/11 44/83/11 43/84/11
f 29/32/12 31/38/12 43/85/12 41/81/12
f 45/86/23 47/87/23 48/88/23 49/89/23 50/90/23 51/91/23 52/92/23 46/93/23
f 37/68/24 49/94/24 48/95/24 36/66/24
f 35/96/25 47/87/25 45/86/25 34/97/25
f 40/98/26 52/92/26 51/91/26 39/99/26
f 38/100/27 50/90/27 49/89/27 37/101/27
f 36/102/28 48/88/28 47/87/28 35/96/28
f 33/103/29 46/93/29 52/92/29 40/98/29
f 34/63/30 45/104/30 46/105/30 33/64/30
f 42/106/20 44/83/20 32/36/20 30/60/20
f 40/107/21 42/106/21 30/60/21 28/62/21
